<svg width="102" height="102" viewBox="0 0 102 102" fill="none" xmlns="http://www.w3.org/2000/svg">
<path fill-rule="evenodd" clip-rule="evenodd" d="M80.763 91.4871C72.5217 97.4708 62.3822 101 51.4185 101C23.8045 101 1.418 78.6135 1.418 51.0005C1.418 23.3855 23.8045 1 51.4185 1C79.0325 1 101.418 23.3855 101.418 51.0005C101.418 62.7145 97.3899 73.4873 90.6423 82.0102" fill="#FCFCFC"/>
<path d="M80.763 91.4871C72.5217 97.4708 62.3822 101 51.4185 101C23.8045 101 1.418 78.6135 1.418 51.0005C1.418 23.3855 23.8045 1 51.4185 1C79.0325 1 101.418 23.3855 101.418 51.0005C101.418 62.7145 97.3899 73.4873 90.6423 82.0102" stroke="#F45F5F"/>
</svg>
