<svg xmlns="http://www.w3.org/2000/svg" width="76" height="65" fill="none"><path fill="#F45F5F" fill-rule="evenodd" d="M37.71 27.398c20.827 0 37.71-20.624 37.71 0S58.538 64.741 37.71 64.741C16.884 64.741 0 48.022 0 27.398c0-20.624 16.884 0 37.71 0Z" clip-rule="evenodd"/><path fill="#FCFCFC" d="M22.804 43.183c0-1.274-.468-2.288-1.417-3.03-.871-.688-1.95-1.04-3.25-1.04-1.729 0-3.601.625-5.603 1.86l1.027 1.664c1.677-1.053 3.211-1.573 4.576-1.573.728 0 1.339.169 1.846.494.585.377.871.923.871 1.612 0 1.248-.819 2.366-2.457 3.354l1.027 1.664c.975-.598 1.768-1.3 2.353-2.093.689-.923 1.027-1.898 1.027-2.912Zm13.442-2.431-2.782-1.885-1.092 1.612 2.782 1.885 1.092-1.612Zm-3.861 3.003c0-1.222-.338-2.223-1.014-3.016-.689-.78-1.638-1.222-2.847-1.326v-1.885h-1.95v2.002a10.29 10.29 0 0 0-1.625.468l.663 1.833a9.09 9.09 0 0 1 .962-.3v4.967h1.95v-5.122c1.287.169 1.924.962 1.924 2.379 0 1.326-.546 2.73-1.625 4.212l1.573 1.157c1.326-1.807 1.989-3.601 1.989-5.37Zm14.885-3.016v-1.95h-2.119l-.299-1.651-1.911.35.234 1.3h-2.678v1.95h3.029l.325 1.769c-.741.273-1.339.702-1.794 1.3a3.346 3.346 0 0 0-.715 2.093c0 .676.208 1.313.624 1.91a4.392 4.392 0 0 0 1.521 1.353l.975-1.69c-.767-.43-1.157-.962-1.157-1.6 0-.662.325-1.143.975-1.416.351-.143.962-.273 1.846-.364l-.611-3.354h1.755Zm14.287 7.293-.871-1.755c-.637.325-1.235.494-1.794.494-1.222 0-2.184-.728-2.886-2.184l-1.443.689 2.847-7.267-1.82-.715-4.108 10.53 1.82.715 1.092-2.821c.494.91 1.105 1.625 1.833 2.145.806.572 1.69.858 2.665.858.858 0 1.742-.234 2.665-.69Z"/><path fill="#F45F5F" fill-rule="evenodd" d="M11.354 12.139a3.372 3.372 0 1 0 0-6.744 3.372 3.372 0 0 0 0 6.744Zm9.441-5.395a3.372 3.372 0 1 0 0-6.744 3.372 3.372 0 0 0 0 6.744Z" clip-rule="evenodd"/></svg>