<svg xmlns="http://www.w3.org/2000/svg" width="93" height="77" fill="none"><path fill="#FCFCFC" fill-rule="evenodd" d="M46.964 31.33C72.39 31.33 93 6.108 93 31.33 93 56.553 72.389 77 46.964 77 21.54 77 .93 56.553.93 31.33c0-25.222 20.61 0 46.035 0Z" clip-rule="evenodd"/><path fill="#F45F5F" d="M25.089 54.506v-1.95h-3.523v-4.745h2.782v-1.95h-7.709v1.95h2.977v4.745h-3.523v1.95h8.996Zm7.228-7.956-2.457-1.82-1.157 1.573 2.47 1.807 1.144-1.56Zm5.785 2.769-1.404-1.339c-2.067 2.171-4.576 4.082-7.501 5.707l.936 1.716c3.107-1.729 5.772-3.757 7.969-6.084Zm13.156.754-5.109-2.444-.598 1.235v-4.576h-1.95v11.466h1.95v-6.253l4.875 2.327.832-1.755Zm11.635-5.655h-1.95c0 1.924-.156 3.744-.468 5.46-.39 2.119-.975 3.835-1.755 5.148l1.677 1.014c.871-1.469 1.534-3.341 1.963-5.642a32.8 32.8 0 0 0 .533-5.98Zm-5.2 6.357V44.99h-1.95v5.785h1.95Zm20.215.104v-1.82h-10.66v1.82h10.66Z"/><path fill="#FCFCFC" fill-rule="evenodd" d="M14.868 15.054a4.059 4.059 0 1 0 0-8.117 4.059 4.059 0 0 0 0 8.117Zm13.619-6.25a4.059 4.059 0 1 0 0-8.117 4.059 4.059 0 0 0 0 8.117Z" clip-rule="evenodd"/></svg>